<?xml version="1.0" encoding="UTF-8"?>
<svg width="413px" height="402px" viewBox="0 0 413 402" version="1.1" xmlns="http://www.w3.org/2000/svg" xmlns:xlink="http://www.w3.org/1999/xlink">
    <title>bingbong (dragged) copy</title>
    <g id="bingbong-(dragged)-copy" stroke="none" stroke-width="1" fill="none" fill-rule="evenodd">
        <path d="M342.5773,98.4515 C341.5203,98.4515 340.4473,98.2115 339.4383,97.7035 C335.9843,95.9675 334.5933,91.7605 336.3293,88.3055 C339.5613,81.8745 344.1703,69.3435 338.7063,57.6695 C333.8403,47.2715 321.9953,39.8095 303.5013,35.4885 C297.7313,34.1405 292.1923,30.3435 286.3293,26.3235 C274.8733,18.4675 263.0233,10.3465 247.0873,16.3185 C243.4473,17.6815 239.6423,18.9945 235.9623,20.2645 C234.1573,20.8875 232.3403,21.5135 230.5173,22.1555 C226.8743,23.4375 222.8753,21.5215 221.5923,17.8745 C220.3093,14.2265 222.2253,10.2305 225.8733,8.9485 C227.7223,8.2985 229.5653,7.6615 231.3953,7.0305 C235.1563,5.7325 238.7073,4.5075 242.1753,3.2075 C264.9333,-5.3205 281.8773,6.2955 294.2463,14.7765 C298.9943,18.0315 303.4783,21.1065 306.6863,21.8555 C329.5703,27.2015 344.6093,37.2545 351.3863,51.7345 C359.3553,68.7625 353.2103,85.8965 348.8373,94.5945 C347.6073,97.0395 345.1403,98.4515 342.5773,98.4515" id="Fill-38" fill="#fff"></path>
        <path d="M114.0001,390.1532 C89.2221,390.1532 62.2391,380.1662 39.7901,360.5072 C-2.4469,323.5182 -12.8699,266.0882 16.5571,232.4842 C24.9501,222.9002 35.1031,216.3952 47.5961,212.5992 C51.2961,211.4752 55.2051,213.5632 56.3291,217.2622 C57.4531,220.9622 55.3651,224.8712 51.6661,225.9952 C41.7481,229.0082 33.7091,234.1482 27.0891,241.7072 C2.7481,269.5042 12.5831,318.0722 49.0141,349.9742 C85.4441,381.8792 134.8861,385.2172 159.2271,357.4222 C162.9561,353.1622 165.9601,348.3172 168.1541,343.0222 C169.6341,339.4512 173.7281,337.7542 177.3011,339.2352 C180.8721,340.7152 182.5671,344.8102 181.0881,348.3822 C178.3081,355.0902 174.4971,361.2342 169.7601,366.6442 C155.9731,382.3882 135.8421,390.1532 114.0001,390.1532" id="Fill-39" fill="#fff"></path>
        <path d="M186.5333,351.6903 C179.7283,351.6903 172.8273,351.1193 165.9383,349.9633 C142.4473,346.0233 121.8563,335.6113 107.9593,320.6433 C105.3283,317.8113 105.4923,313.3813 108.3253,310.7513 C111.1573,308.1213 115.5873,308.2853 118.2183,311.1183 C142.3273,337.0813 190.1723,345.5273 224.8703,329.9503 C228.3973,328.3653 232.5403,329.9433 234.1233,333.4683 C235.7073,336.9963 234.1313,341.1383 230.6043,342.7213 C217.4083,348.6463 202.2363,351.6903 186.5333,351.6903" id="Fill-40" fill="#fff"></path>
        <path d="M351.964,138.892 C351.239,138.892 350.502,138.779 349.776,138.539 C346.104,137.331 344.106,133.375 345.314,129.703 C348.354,120.461 345.307,109.222 336.953,98.868 C327.942,87.696 314.53,79.298 302.787,77.471 C298.968,76.877 296.353,73.298 296.946,69.478 C297.541,65.658 301.12,63.046 304.94,63.637 C323.135,66.468 339.036,79.151 347.85,90.078 C359.242,104.2 363.165,120.237 358.612,134.078 C357.644,137.023 354.905,138.892 351.964,138.892" id="Fill-41" fill="#fff"></path>
        <path d="M98.8097,264.9345 C83.8697,264.9345 67.2207,258.8405 55.1887,243.3605 C35.5687,218.1165 34.1377,187.7055 51.3617,162.0095 C53.5137,158.7975 57.8627,157.9385 61.0737,160.0925 C64.2857,162.2455 65.1437,166.5935 62.9907,169.8045 C49.2927,190.2395 50.5077,214.5255 66.2427,234.7685 C78.5687,250.6265 98.5097,253.7585 111.8387,248.6605 C116.9697,246.6965 128.7847,240.4145 127.6657,224.5395 C127.3947,220.6835 130.3007,217.3375 134.1577,217.0655 C137.9987,216.7865 141.3607,219.7005 141.6317,223.5565 C142.8637,241.0505 133.5967,255.3235 116.8427,261.7355 C111.5057,263.7775 105.3197,264.9345 98.8097,264.9345" id="Fill-42" fill="#fff"></path>
        <path d="M119.0782,232.2255 C106.9222,232.2255 93.5102,228.0165 80.9852,217.5795 C62.9272,202.5315 52.0452,180.8995 51.8772,159.7145 C51.7302,141.3495 59.6042,124.7995 74.6462,111.8525 C77.5772,109.3315 81.9952,109.6625 84.5182,112.5925 C87.0402,115.5225 86.7092,119.9425 83.7792,122.4645 C71.9552,132.6415 65.7642,145.4835 65.8762,159.6035 C66.0112,176.4695 75.2342,194.5635 89.9482,206.8255 C102.1982,217.0345 122.5132,223.2455 138.1632,212.7605 C147.8462,206.2735 151.2542,195.7295 147.5152,183.8305 C146.3552,180.1425 148.4062,176.2135 152.0942,175.0545 C155.7812,173.8955 159.7112,175.9455 160.8712,179.6335 C166.4372,197.3485 160.7232,214.4975 145.9552,224.3915 C138.7682,229.2055 129.3742,232.2255 119.0782,232.2255" id="Fill-43" fill="#fff"></path>
        <path d="M133.9503,191.0282 C127.0363,191.0282 120.3633,189.6532 114.5943,186.7682 C85.8533,172.3982 74.6453,145.0072 73.7393,124.1632 C73.1363,110.2972 81.0673,82.3902 104.9193,66.5362 C108.1383,64.3962 112.4833,65.2722 114.6233,68.4912 C116.7633,71.7112 115.8883,76.0562 112.6693,78.1952 C94.8233,90.0572 87.2343,112.2742 87.7253,123.5552 C87.9783,129.3812 90.7663,159.2022 120.8543,174.2462 C132.9423,180.2912 152.5713,176.0712 163.7193,165.0342 C170.6603,158.1612 177.0173,146.0372 167.8843,127.3072 C166.1893,123.8322 167.6333,119.6422 171.1073,117.9472 C174.5823,116.2522 178.7723,117.6952 180.4673,121.1712 C190.2873,141.3062 187.7723,160.9202 173.5693,174.9832 C163.1473,185.3022 148.0523,191.0282 133.9503,191.0282" id="Fill-44" fill="#fff"></path>
        <path d="M167.1017,129.5922 C150.4357,129.5922 134.2347,124.0342 121.1237,113.3822 C109.3867,103.8452 99.5677,81.7132 104.4877,59.4792 C110.8047,30.9382 137.5007,20.1902 152.8517,16.3242 C159.2077,14.7232 164.9457,12.7532 170.4927,10.8482 C187.8287,4.8962 204.2027,-0.7258 227.1877,10.7062 C236.0507,15.1142 245.5537,17.3852 254.7447,19.5802 C277.0007,24.8972 300.0157,30.3962 305.4027,66.0942 C305.9787,69.9172 303.3477,73.4832 299.5247,74.0602 C295.7107,74.6342 292.1357,72.0062 291.5587,68.1832 C287.5807,41.8192 273.2237,38.3892 251.4917,33.1972 C242.0007,30.9302 231.2457,28.3612 220.9537,23.2412 C203.2087,14.4162 191.3927,18.4742 175.0387,24.0892 C169.2177,26.0882 163.1987,28.1552 156.2707,29.9002 C134.8647,35.2912 121.6847,46.5662 118.1577,62.5042 C114.6317,78.4342 121.5357,95.6772 129.9527,102.5162 C145.6097,115.2382 166.8017,118.9462 186.6447,112.4352 C207.6737,105.5342 223.2117,88.2032 229.2747,64.8852 C230.2467,61.1442 234.0687,58.9022 237.8107,59.8722 C241.5517,60.8442 243.7957,64.6662 242.8237,68.4082 C235.5397,96.4262 216.6537,117.3222 191.0087,125.7372 C183.1267,128.3232 175.0597,129.5922 167.1017,129.5922" id="Fill-45" fill="#fff"></path>
        <path d="M369.6476,206.1181 C368.9756,206.1181 368.2926,206.0201 367.6166,205.8151 C363.9166,204.6961 361.8246,200.7881 362.9456,197.0881 C369.2936,176.1211 365.5286,156.6661 352.6176,143.7101 C334.9866,126.0181 303.4196,122.2851 266.0156,133.4691 C262.3086,134.5771 258.4126,132.4721 257.3036,128.7671 C256.1966,125.0641 258.3016,121.1631 262.0056,120.0561 C304.5056,107.3491 341.1486,112.3681 362.5346,133.8281 C379.2006,150.5511 384.2336,175.0871 376.3436,201.1441 C375.4286,204.1681 372.6516,206.1181 369.6476,206.1181" id="Fill-46" fill="#fff"></path>
        <path d="M381.0031,261.3016 C380.5301,261.3016 380.0521,261.2536 379.5701,261.1546 C375.7851,260.3666 373.3561,256.6596 374.1431,252.8746 C378.8281,230.3496 373.5461,210.9216 359.6491,199.5746 C341.4101,184.6796 311.2941,184.5936 277.0241,199.3376 C273.4771,200.8636 269.3571,199.2256 267.8281,195.6746 C266.3001,192.1226 267.9401,188.0056 271.4911,186.4776 C310.7241,169.5996 346.0821,170.4196 368.5051,188.7306 C386.5841,203.4946 393.6351,227.9126 387.8501,255.7266 C387.1621,259.0306 384.2501,261.3016 381.0031,261.3016" id="Fill-47" fill="#fff"></path>
        <path d="M343.8771,252.12 C326.2031,252.12 306.4091,257.39 287.7241,268.178 C267.0291,280.125 250.9011,296.948 242.3111,315.547 C234.1011,333.322 233.8561,350.519 241.6231,363.971 C258.1401,392.578 305.6941,396.155 347.6331,371.942 C389.5691,347.73 410.2501,304.758 393.7331,276.149 C384.5761,260.288 365.8701,252.12 343.8771,252.12 M291.7021,401.936 C288.6471,401.936 285.6221,401.802 282.6331,401.529 C258.4751,399.327 239.6051,388.474 229.4981,370.971 C219.3931,353.467 219.4301,331.699 229.6021,309.676 C239.3941,288.476 257.5491,269.433 280.7241,256.053 C303.8981,242.674 329.4681,236.47 352.7241,238.592 C376.8821,240.794 395.7521,251.645 405.8581,269.149 C415.9641,286.653 415.9271,308.421 405.7551,330.444 C395.9631,351.643 377.8081,370.687 354.6331,384.067 C334.4371,395.727 312.4191,401.936 291.7021,401.936" id="Fill-48" fill="#fff"></path>
        <path d="M280.6115,365.7587 C278.1915,365.7587 275.8395,364.5037 274.5425,362.2577 C269.7545,353.9637 271.1185,343.2237 278.3835,332.0147 C284.7365,322.2127 295.1175,312.8417 307.6135,305.6267 C335.7335,289.3927 363.9245,289.2527 373.1925,305.3017 C375.1255,308.6497 373.9775,312.9307 370.6305,314.8637 C367.2815,316.7947 363.0015,315.6507 361.0675,312.3017 C357.2035,305.6097 337.6605,304.4447 314.6135,317.7517 C304.1515,323.7917 295.2285,331.7657 290.1315,339.6287 C285.9955,346.0097 284.7005,351.8527 286.6675,355.2577 C288.5995,358.6057 287.4525,362.8867 284.1045,364.8207 C283.0025,365.4557 281.7985,365.7587 280.6115,365.7587" id="Fill-49" fill="#fff"></path>
        <path d="M226.004,98.205 C224.16,98.205 222.319,97.481 220.944,96.043 C218.273,93.25 218.371,88.819 221.164,86.146 C234.687,73.212 255.438,64.297 276.673,62.298 C300.197,60.08 321.793,66.193 337.48,79.502 C340.427,82.003 340.789,86.421 338.288,89.369 C335.786,92.315 331.37,92.679 328.421,90.177 C315.636,79.329 297.719,74.379 277.985,76.236 C259.784,77.95 242.161,85.436 230.842,96.264 C229.485,97.56 227.743,98.205 226.004,98.205" id="Fill-50" fill="#fff"></path>
    </g>
</svg>
